<svg version="1.1" id="Capa_1" xmlns="http://www.w3.org/2000/svg" xmlns:xlink="http://www.w3.org/1999/xlink" x="0px" y="0px" viewBox="0 0 50 50" style="enable-background:new 0 0 400 400;" xml:space="preserve" width="50" height="50"><g><g><path style="fill:#EDEDED;" d="M50 39.831C50 45.447 45.502 50 39.954 50H10.046C4.497 50 0 45.447 0 39.831V10.169C0 4.553 4.497 0 10.046 0h29.909C45.502 0 50 4.553 50 10.169z"/><path style="fill:#808080;" d="M49.985 39.831V27.358L34.267 13.867l5.122 13.028 -4.212 9.808L25 41.458l-8.793 -1.461L27.478 50h12.461c5.548 0 10.046 -4.553 10.046 -10.169"/><g><g><path style="fill:#7996B1;" d="M24.592 36.703c-5.575 0 -10.111 -4.591 -10.111 -10.236 0 -4.122 2.424 -7.824 6.175 -9.431 0.736 -0.316 1.585 0.034 1.897 0.778 0.311 0.746 -0.033 1.605 -0.769 1.921 -2.678 1.147 -4.407 3.788 -4.407 6.731 0 4.028 3.237 7.304 7.215 7.304s7.216 -3.277 7.216 -7.304c0 -3.433 -2.305 -6.362 -5.606 -7.122 -0.779 -0.179 -1.268 -0.965 -1.09 -1.754s0.953 -1.282 1.733 -1.103c4.627 1.067 7.858 5.17 7.858 9.98 0 5.644 -4.536 10.236 -10.111 10.236"/></g><g><path style="fill:#7996B1;" d="M24.592 42.444c-8.702 0 -15.781 -7.167 -15.781 -15.976 0 -6.851 4.303 -12.932 10.708 -15.132 0.757 -0.26 1.579 0.15 1.836 0.917s-0.148 1.599 -0.906 1.859c-5.229 1.796 -8.743 6.762 -8.743 12.357 0 7.193 5.78 13.044 12.886 13.044s12.886 -5.852 12.886 -13.044c0 -6.455 -4.752 -12.007 -11.053 -12.914 -0.791 -0.114 -1.341 -0.856 -1.229 -1.657s0.846 -1.358 1.637 -1.244c7.72 1.111 13.54 7.91 13.54 15.816 0 8.809 -7.08 15.976 -15.781 15.976"/></g><g><path style="fill:#E4A900;" d="M24.591 27.934a1.45 1.45 0 0 1 -1.388 -1.052L17.675 7.903c-0.227 -0.776 0.212 -1.591 0.979 -1.82s1.572 0.215 1.798 0.992L25.98 26.053c0.226 0.776 -0.212 1.591 -0.979 1.82a1.45 1.45 0 0 1 -0.41 0.06"/></g><g><path style="fill:#FFFFFF;" cx="196.735" cy="211.745" rx="28.427" ry="28.777" d="M28.145 26.468a3.554 3.597 0 0 1 -3.554 3.597 3.554 3.597 0 0 1 -3.554 -3.597 3.554 3.597 0 0 1 7.107 0"/></g><g><path style="fill:#D66D5D;" cx="310.961" cy="201.665" rx="23.698" ry="23.989" d="M41.833 25.208a2.962 2.998 0 0 1 -2.962 2.998 2.962 2.998 0 0 1 -2.962 -2.998 2.962 2.998 0 0 1 5.925 0"/></g><g><path style="fill:#D66D5D;" cx="201.464" cy="327.826" rx="23.698" ry="23.987" d="M28.145 40.978a2.962 2.998 0 0 1 -2.962 2.998 2.962 2.998 0 0 1 -2.962 -2.998 2.962 2.998 0 0 1 5.925 0"/></g><g><path style="fill:#D66D5D;" cx="82.065" cy="222.703" rx="23.698" ry="23.99" d="M13.22 27.838a2.962 2.998 0 0 1 -2.962 2.998 2.962 2.998 0 0 1 -2.962 -2.998 2.962 2.998 0 0 1 5.925 0"/></g></g><path style="fill:none;" d="M14.48 26.468c0 -4.018 2.305 -7.63 5.894 -9.297l-0.793 -2.724c-4.38 1.868 -7.381 6.031 -7.818 10.812a3 3 0 0 1 1.457 2.579 3 3 0 0 1 -1.006 2.248c1.382 4.838 5.459 8.527 10.473 9.283a2.96 2.96 0 0 1 1.878 -1.317v-1.349c-5.563 -0.015 -10.084 -4.601 -10.084 -10.235"/><path style="fill:none;" d="M21.038 26.468c0 -1.095 0.485 -2.075 1.248 -2.734l-1.081 -3.715c-2.345 1.261 -3.829 3.725 -3.829 6.449 0 4.019 3.222 7.289 7.189 7.304v-3.708c-1.95 -0.015 -3.526 -1.619 -3.526 -3.596"/><path style="opacity:0.28;fill:#534551;enable-background:new    ;" d="M24.592 30.065c1.962 0 3.554 -1.611 3.554 -3.597 0 -1.824 -1.343 -3.328 -3.082 -3.562l-0.499 -1.716v8.873q0.013 0.001 0.028 0.002"/><path style="opacity:0.28;fill:#534551;enable-background:new    ;" d="M24.592 36.703c5.575 0 10.111 -4.591 10.111 -10.236 0 -4.809 -3.232 -8.913 -7.858 -9.98 -0.78 -0.179 -1.556 0.315 -1.733 1.103s0.31 1.575 1.09 1.754c3.3 0.761 5.606 3.689 5.606 7.122 0 4.028 -3.237 7.304 -7.216 7.304l-0.028 -0.001v2.931z"/><path style="opacity:0.28;fill:#534551;enable-background:new    ;" d="M27.936 42.08c6.675 -1.464 11.787 -7.215 12.376 -14.252a3 3 0 0 0 1.521 -2.619 2.995 2.995 0 0 0 -1.994 -2.832c-1.602 -6.054 -6.661 -10.81 -13.006 -11.724 -0.791 -0.114 -1.524 0.443 -1.637 1.244s0.438 1.544 1.229 1.657C31.524 14.289 35.608 18.065 36.98 22.9a3.005 3.005 0 0 0 -1.072 2.308 3 3 0 0 0 1.501 2.607c-0.567 5.563 -4.601 10.097 -9.871 11.35 -0.541 -0.719 -1.393 -1.185 -2.355 -1.185 -0.213 0 -0.419 0.029 -0.619 0.071v5.859c0.2 0.043 0.406 0.067 0.619 0.067 1.252 0 2.32 -0.787 2.753 -1.898"/></g></g></svg>